Coordinates
version=1
nRows=22
nColumns=26
inDegrees=yes

Units are S.I. units (second, meters, Newtons, ...)
If the header above contains a line with 'inDegrees', this indicates whether rotational values are in degrees (yes) or radians (no).

endheader
time	pelvis_tilt	pelvis_list	pelvis_rotation	pelvis_tx	pelvis_ty	pelvis_tz	hip_flexion_r	hip_adduction_r	hip_rotation_r	knee_angle_r	knee_angle_r_beta	hip_flexion_l	hip_adduction_l	hip_rotation_l	knee_angle_l	knee_angle_l_beta	lumbar_extension	lumbar_bending	lumbar_rotation	ankle_angle_r	subtalar_angle_r	mtp_angle_r	ankle_angle_l	subtalar_angle_l	mtp_angle_l
      0.06000000	    -11.56393319	      4.93735683	     17.37704108	      0.54118735	      0.74979471	     -0.27851401	     35.48156268	    -12.89741882	    -11.02939602	      4.93113645	      0.08606457	     -7.04069439	      3.35791786	      0.48273487	     15.12934128	      0.26405682	     -7.51697340	     -9.73412871	     -9.24598387	      5.10691475	      1.74930536	      0.00000000	      5.20090801	     14.71087397	      0.00000000
      0.07000000	    -11.45437644	      4.16517602	     17.33306142	      0.55773452	      0.74828713	     -0.27804195	     36.09028027	    -11.96153315	    -10.02308350	      7.39929326	      0.12914203	     -6.18797924	      1.85040902	     -0.09401665	     18.33748991	      0.32004958	     -7.22515778	     -8.66970522	     -9.12247901	      3.49208416	     -0.72709834	      0.00000000	      3.25521536	     15.17839392	      0.00000000
      0.08000000	    -11.36819857	      3.27358204	     17.19451935	      0.57420123	      0.74697733	     -0.27743565	     36.76959967	    -10.82708972	     -8.98025695	     10.12907627	      0.17678573	     -4.99415505	      0.24659195	     -0.44338868	     21.87265105	      0.38174978	     -6.87693114	     -7.49009957	     -8.84147019	      1.76670186	     -3.17906003	      0.00000000	      0.46070317	     15.27542330	      0.00000000
      0.09000000	    -10.70656321	      2.66322193	     16.95091666	      0.59081607	      0.74669500	     -0.27705720	     36.75619132	     -9.79034101	     -8.31584765	     13.09538938	      0.22855766	     -4.48953219	     -1.12448755	     -0.38572076	     25.06120357	      0.43740052	     -7.29372858	     -6.39719764	     -8.54328382	      0.99757985	     -4.48463031	      0.00000000	     -3.62318989	     15.07818354	      0.00000000
      0.10000000	    -11.17506199	      1.29914933	     16.74794147	      0.60689317	      0.74528066	     -0.27619129	     37.87468654	     -8.16129284	     -7.13490644	     15.56216949	      0.27161110	     -1.89144526	     -2.94361794	     -0.10151054	     29.36547560	      0.51252424	     -6.18082544	     -4.89219256	     -8.14581723	     -1.15064851	     -7.44569145	      0.00000000	     -7.62516529	     14.58296982	      0.00000000
      0.11000000	    -11.14913624	      0.33386231	     16.47616931	      0.62304723	      0.74493784	     -0.27562132	     38.27047799	     -6.79392903	     -6.44941919	     18.00848772	      0.31430740	      0.01868368	     -4.29291467	      0.69348313	     33.14046100	      0.57841016	     -5.79927538	     -3.65819720	     -7.76747385	     -2.10560840	     -9.28036567	      0.00000000	    -12.33877095	     13.92172125	      0.00000000
      0.12000000	    -11.09299130	     -0.50736534	     16.18238129	      0.63901686	      0.74512219	     -0.27521304	     38.34634530	     -5.52059666	     -5.98612848	     20.02505790	      0.34950319	      2.04746421	     -5.33907987	      1.81081259	     36.91311361	      0.64425537	     -5.54510552	     -2.54197871	     -7.27296374	     -2.52416360	    -10.72399110	      0.00000000	    -16.95245417	     13.04317757	      0.00000000
      0.13000000	    -10.82284769	     -1.25102917	     15.77317812	      0.65499263	      0.74605959	     -0.27489317	     37.87567818	     -4.21178408	     -5.63347126	     21.55717697	      0.37624372	      3.87806150	     -6.16697912	      3.00767011	     40.47873199	      0.70648715	     -5.57331101	     -1.45118490	     -6.61685716	     -2.25530731	    -11.64865917	      0.00000000	    -21.07465091	     11.86091669	      0.00000000
      0.14000000	    -10.72801341	     -1.89738750	     15.39722270	      0.67062703	      0.74727544	     -0.27465696	     37.32390877	     -3.06606554	     -5.49566780	     22.62938567	      0.39495729	      6.08347308	     -6.68052289	      4.39799286	     44.13382256	      0.77028052	     -5.50570797	     -0.53965312	     -5.97208383	     -1.78062649	    -12.56155851	      0.00000000	    -23.95202939	     10.64018024	      0.00000000
      0.15000000	    -10.81864103	     -2.57661075	     15.09582085	      0.68604065	      0.74873336	     -0.27454616	     36.67098992	     -1.97741197	     -5.45520376	     23.16927133	      0.40438007	      8.66764410	     -7.03674115	      5.86394916	     47.79021986	      0.83409669	     -5.20387555	      0.31394784	     -5.37880605	     -1.12729616	    -13.19920758	      0.00000000	    -25.60150872	      9.14707802	      0.00000000
      0.16000000	    -10.77889721	     -3.06171681	     14.76154886	      0.70140995	      0.75079048	     -0.27443052	     35.59031579	     -1.00484147	     -5.41705464	     23.29295362	      0.40653873	     11.06769229	     -7.14299074	      7.19267862	     51.16502758	      0.89299819	     -5.12795273	      0.95315790	     -4.64668852	     -0.17043740	    -13.58114047	      0.00000000	    -26.04482317	      7.68548322	      0.00000000
      0.17000000	    -10.73615812	     -3.52066950	     14.44538737	      0.71666885	      0.75323626	     -0.27428318	     34.24340943	     -0.05428984	     -5.45163044	     22.92306082	      0.40008289	     13.48771394	     -7.17189347	      8.37459792	     54.25310916	      0.94689538	     -5.07850458	      1.51205658	     -3.92753233	      0.84248136	    -13.70133303	      0.00000000	    -25.46581666	      5.97162531	      0.00000000
      0.18000000	    -10.54040501	     -3.58359446	     14.07382828	      0.73196151	      0.75631992	     -0.27410657	     32.43770921	      0.62286300	     -5.20440868	     22.18990625	      0.38728692	     15.48493172	     -6.79831029	      9.27596758	     56.77722095	      0.99094945	     -5.32156238	      1.58159707	     -3.02861065	      1.80083240	    -13.73213239	      0.00000000	    -23.92791918	      4.11417064	      0.00000000
      0.19000000	    -10.40502392	     -3.97711280	     13.84650157	      0.74710778	      0.75939064	     -0.27402554	     30.56166305	      1.51848667	     -5.21334388	     21.04041122	      0.36722445	     17.73427631	     -6.78106297	     10.06913429	     59.05474995	      1.03069983	     -5.38361171	      2.04929839	     -2.36053934	      2.60138812	    -13.32826169	      0.00000000	    -21.96479438	      2.01792443	      0.00000000
      0.20000000	    -10.17437153	     -4.28760309	     13.76831881	      0.76231168	      0.76274656	     -0.27401562	     28.37288551	      2.31872395	     -5.22575710	     19.52772986	      0.34082318	     19.78032743	     -6.70184767	     10.76927889	     60.77313289	      1.06069127	     -5.54149719	      2.37619402	     -1.80006791	      3.19917693	    -12.87123268	      0.00000000	    -19.71067094	      0.06129565	      0.00000000
      0.21000000	     -9.79674145	     -4.40462512	     13.73908963	      0.77756139	      0.76641732	     -0.27404821	     25.84064708	      2.97320447	     -5.14287115	     17.71310127	      0.30915194	     21.46641316	     -6.48651926	     11.25679245	     61.85527942	      1.07957829	     -5.91020219	      2.49017486	     -1.28307793	      3.52397641	    -12.42741601	      0.00000000	    -17.37722036	     -1.83613611	      0.00000000
      0.22000000	     -9.88807715	     -4.13115127	     13.62156542	      0.79250555	      0.76960222	     -0.27410074	     23.84823278	      3.12264417	     -4.78667626	     16.14225211	      0.28173545	     23.42290630	     -5.74236820	     11.39511695	     62.42723741	      1.08956084	     -5.82342246	      1.99102626	     -0.74189871	      3.75038587	    -11.96975228	      0.00000000	    -15.17174329	     -3.69819597	      0.00000000
      0.23000000	     -9.80574618	     -4.03933096	     13.54236308	      0.80749875	      0.77273885	     -0.27429427	     21.63276119	      3.45986380	     -4.60892765	     14.38603397	      0.25108366	     25.17279008	     -5.33330135	     11.29581900	     62.56623475	      1.09198680	     -5.86284805	      1.81376583	     -0.29394467	      3.78460939	    -11.34245868	      0.00000000	    -13.15001165	     -5.63080636	      0.00000000
      0.24000000	     -8.81365831	     -4.02559708	     13.71408497	      0.82280255	      0.77667890	     -0.27465645	     18.18738163	      4.08228508	     -4.56911148	     12.03263437	      0.21000909	     25.83726006	     -5.24359562	     11.22458156	     62.11027786	      1.08402885	     -6.93224793	      1.98332711	     -0.04620615	      3.36029151	    -10.87354700	      0.00000000	    -11.69416978	     -7.68824252	      0.00000000
      0.25000000	     -9.07627908	     -3.80343696	     13.60155165	      0.83749432	      0.77882892	     -0.27479650	     16.49618467	      4.17382175	     -4.65102854	     10.56480826	      0.18439069	     27.77113944	     -4.75229158	     10.62444045	     61.46209405	      1.07271591	     -6.58338798	      1.52273495	      0.22465446	      3.45753025	    -10.50198807	      0.00000000	    -10.18033731	     -9.00870214	      0.00000000
      0.26000000	     -8.27847066	     -3.55472075	     13.59550063	      0.85255451	      0.78209669	     -0.27537158	     13.30426276	      4.49265168	     -4.32539539	      8.36422028	      0.14598318	     28.21318951	     -4.38685719	     10.16243239	     60.02093189	      1.04756288	     -7.52719713	      1.46624182	      0.47490145	      2.75951612	     -9.81014084	      0.00000000	     -9.22241227	    -11.16121411	      0.00000000
      0.27000000	     -8.49486356	     -3.46492415	     13.41561700	      0.86708453	      0.78357233	     -0.27575662	     11.63331422	      4.69564956	     -4.37513513	      6.91296475	      0.12065400	     29.85286051	     -4.06940918	      9.36844900	     58.55628129	      1.02199991	     -7.21382043	      1.29495212	      0.65114128	      2.62688736	     -9.20962878	      0.00000000	     -7.99514098	    -12.32799174	      0.00000000
